<?xml version="1.0" standalone="no"?>
<!DOCTYPE svg PUBLIC "-//W3C//DTD SVG 20010904//EN"
 "http://www.w3.org/TR/2001/REC-SVG-20010904/DTD/svg10.dtd">
<svg version="1.0" xmlns="http://www.w3.org/2000/svg"
 width="1280.000000pt" height="1280.000000pt" viewBox="0 0 1280.000000 1280.000000"
 preserveAspectRatio="xMidYMid meet">
<metadata>
Created by potrace 1.11, written by Peter Selinger 2001-2013
</metadata>
<g transform="translate(0.000000,1280.000000) scale(0.100000,-0.100000)"
fill="#000000" stroke="none">
<path d="M2150 6400 l0 -6400 4250 0 4250 0 0 6400 0 6400 -4250 0 -4250 0 0
-6400z m1895 5360 c7 -12 72 -192 317 -885 99 -280 203 -573 230 -650 27 -77
54 -151 58 -165 8 -25 26 -76 120 -340 29 -80 68 -191 87 -247 33 -96 48 -120
58 -90 2 6 118 338 258 737 141 399 315 894 387 1100 72 206 146 414 163 463
l31 87 458 0 458 0 -2 -1682 -3 -1683 -345 0 -345 0 0 575 c0 511 14 1011 40
1420 13 214 17 434 7 425 -6 -5 -26 -55 -45 -110 -36 -104 -274 -762 -307
-850 -10 -27 -105 -288 -210 -580 -298 -825 -310 -858 -322 -872 -8 -10 -62
-13 -237 -13 -124 0 -231 4 -237 8 -7 4 -19 27 -27 52 -8 25 -22 63 -30 85 -9
22 -74 202 -145 400 -72 198 -216 596 -320 885 -104 289 -227 629 -272 755
-46 127 -87 234 -91 240 -13 13 -12 -11 21 -750 26 -576 30 -740 28 -1170 l-3
-500 -345 0 -345 0 -3 1683 -2 1682 454 0 c296 0 457 -4 461 -10z m3745 -237
c62 -137 166 -363 230 -503 65 -140 130 -282 145 -315 40 -89 124 -271 156
-343 16 -34 29 -67 29 -72 0 -6 5 -10 10 -10 10 0 18 16 172 350 49 107 107
233 129 280 22 47 120 258 217 470 l178 385 382 3 c210 1 382 -1 382 -4 0 -4
-52 -108 -116 -233 -64 -124 -159 -309 -212 -411 -52 -102 -125 -243 -162
-315 -37 -71 -112 -218 -168 -325 -55 -107 -176 -341 -268 -520 l-169 -325 -5
-615 -5 -615 -350 0 -350 0 -5 615 -5 615 -154 300 c-84 165 -166 323 -181
350 -15 28 -80 154 -145 280 -65 127 -150 293 -190 370 -40 77 -119 230 -175
340 -57 110 -136 264 -176 341 -40 78 -70 144 -67 148 3 3 176 6 383 6 l376 0
114 -247z m835 -3453 c481 -40 811 -235 1003 -590 68 -126 137 -353 144 -475
l3 -50 -329 -3 c-218 -1 -333 1 -341 8 -7 6 -16 27 -19 48 -23 131 -90 268
-165 342 -113 109 -240 154 -446 154 -151 1 -208 -11 -321 -65 -67 -31 -95
-52 -156 -118 -129 -137 -200 -314 -234 -581 -17 -136 -19 -609 -4 -745 49
-424 220 -682 510 -774 249 -78 645 -25 785 105 l25 23 -2 283 -3 283 -313 3
-312 2 2 258 3 257 660 0 660 0 3 -676 2 -677 -63 -58 c-189 -177 -425 -293
-727 -358 -168 -36 -282 -47 -484 -47 -201 0 -346 20 -496 66 -568 178 -906
647 -969 1345 -14 146 -14 481 -1 630 40 453 179 791 429 1041 288 288 669
409 1156 369z m-3955 -63 c324 -60 514 -147 657 -301 148 -158 215 -337 216
-581 1 -238 -57 -395 -202 -548 -53 -57 -179 -149 -222 -162 -31 -10 -18 -25
38 -45 96 -34 158 -75 248 -165 113 -112 165 -208 196 -360 35 -167 18 -419
-37 -568 -109 -293 -343 -482 -699 -566 -184 -44 -226 -46 -1000 -46 l-740 0
-3 1683 -2 1683 732 -4 c616 -3 747 -6 818 -20z m2008 -1659 l-3 -1683 -345 0
-345 0 -3 1670 c-1 919 0 1676 3 1683 3 9 83 12 350 12 l345 0 -2 -1682z
m1913 -2019 c353 -35 602 -150 834 -383 244 -245 386 -556 441 -966 20 -150
23 -561 5 -715 -75 -657 -402 -1123 -914 -1305 -143 -51 -222 -67 -392 -79
-280 -20 -544 31 -775 151 -243 125 -449 337 -578 593 -117 234 -173 459 -192
783 -30 482 36 872 201 1193 264 511 785 788 1370 728z m-3891 -68 c478 -90
746 -307 827 -671 23 -101 23 -320 1 -417 -46 -199 -191 -389 -362 -476 -63
-32 -75 -45 -49 -53 151 -48 289 -148 375 -272 38 -55 92 -173 107 -234 49
-204 23 -487 -63 -672 -46 -100 -87 -158 -166 -236 -117 -117 -282 -204 -478
-254 -199 -50 -226 -51 -1022 -51 l-745 0 -3 1670 c-1 919 0 1676 3 1683 4 11
136 13 732 9 695 -4 733 -5 843 -26z m1980 -1656 l0 -1685 -347 2 -348 3 -3
1670 c-1 919 0 1676 3 1683 3 9 83 12 350 12 l345 0 0 -1685z"/>
<path d="M3822 7043 l3 -418 225 -3 c368 -5 524 18 640 96 102 68 150 172 150
322 0 105 -20 186 -61 248 -40 61 -77 89 -152 120 -107 43 -188 51 -510 52
l-297 0 2 -417z"/>
<path d="M3822 5678 l3 -443 320 -3 c185 -1 348 2 387 8 182 28 303 114 360
258 18 47 22 77 23 167 0 165 -35 265 -120 344 -52 48 -123 83 -203 100 -34 7
-183 11 -413 11 l-359 0 2 -442z"/>
<path d="M8320 3744 c-337 -64 -531 -340 -580 -823 -13 -133 -13 -504 0 -629
50 -456 227 -730 526 -813 110 -30 268 -30 379 0 213 59 365 221 449 481 58
178 68 262 73 581 4 222 1 315 -11 415 -51 419 -207 667 -478 761 -61 21 -95
26 -203 28 -71 2 -141 1 -155 -1z"/>
<path d="M3825 3708 c-3 -7 -4 -195 -3 -418 l3 -405 310 1 c334 1 390 7 502
59 154 70 230 229 203 427 -26 185 -108 274 -304 325 -85 22 -703 32 -711 11z"/>
<path d="M3825 2368 c-3 -7 -4 -206 -3 -443 l3 -430 338 -3 c374 -3 427 3 541
57 81 39 156 119 186 199 27 70 37 211 21 297 -24 130 -95 231 -197 281 -100
49 -142 53 -527 54 -277 0 -359 -3 -362 -12z"/>
</g>
</svg>
